<mxfile host="app.diagrams.net" modified="2023-04-14T14:22:31.040Z" agent="Mozilla/5.0 (Macintosh; Intel Mac OS X 10_15_7) AppleWebKit/537.36 (KHTML, like Gecko) Chrome/111.0.0.0 Safari/537.36" version="21.1.1" etag="2FxNU9lreuqebasUy_Qg" type="github">
  <diagram name="Page-1" id="ey7MowC4njxBOhQ8ENM-">
    <mxGraphModel>
      <root>
        <mxCell id="0" />
        <mxCell id="1" parent="0" />
      </root>
    </mxGraphModel>
  </diagram>
</mxfile>
